<svg width="110" height="110" viewBox="0 0 110 110" version="1.1" xmlns="http://www.w3.org/2000/svg" xmlns:xlink="http://www.w3.org/1999/xlink"><defs><path id="path-1" d="M0 .273h109.727V110H0z"/></defs><g id="Key-content-pages" stroke="none" stroke-width="1" fill="none" fill-rule="evenodd"><g id="1.-HOME" transform="translate(-230 -114)"><g id="Group-6" transform="translate(230 114)"><g id="Group-3"><mask id="mask-2" fill="#fff"><use xlink:href="#path-1"/></mask><path d="M109.727 73.746c0 20.022-16.232 36.254-36.254 36.254H0V36.527C0 16.505 16.23.273 36.254.273h73.47l.003 73.473z" id="Fill-1" fill="#2E008B" mask="url(#mask-2)"/></g><path d="M71.46 82.167h3.082v7.22h.054c.757-1.281 2.353-2.235 4.191-2.235 3.029 0 4.949 1.635 4.949 4.795v9.672h-3.083v-8.855c-.054-2.206-.92-3.16-2.73-3.16-2.056 0-3.38 1.635-3.38 3.706v8.309H71.46V82.167zm-10.14 5.367h2.325V83.31h3.083v4.223h2.785v2.315h-2.785v7.52c0 1.28.108 1.934 1.487 1.934.433 0 .866 0 1.298-.109v2.397c-.676.055-1.325.164-2 .164-3.218 0-3.813-1.254-3.868-3.596v-8.31H61.32v-2.315zm-4.759 14.085h3.083V82.167h-3.083v19.452zm-6.218-7.056c-.947.626-2.434.599-3.786.844-1.325.218-2.514.708-2.514 2.343 0 1.39 1.757 1.798 2.839 1.798 1.352 0 3.46-.708 3.46-2.67v-2.315zm3.083 3.923c0 .762.162 1.062.73 1.062.189 0 .432 0 .757-.055v2.153c-.46.163-1.434.354-1.947.354-1.244 0-2.136-.436-2.38-1.716-1.217 1.198-3.19 1.716-4.84 1.716-2.515 0-4.786-1.362-4.786-4.114 0-3.514 2.785-4.086 5.381-4.386 2.217-.408 4.191-.164 4.191-1.988 0-1.608-1.65-1.908-2.893-1.908-1.73 0-2.947.709-3.083 2.234h-3.082c.216-3.623 3.271-4.686 6.354-4.686 2.731 0 5.598 1.117 5.598 4.087v7.247zm-16.873-5.15c-.108-1.96-1.433-3.732-3.515-3.732-2.136 0-3.596 1.635-3.677 3.732h7.192zm-7.192 2.044c0 2.207 1.19 4.168 3.758 4.168 1.785 0 2.866-.79 3.407-2.343h2.92c-.675 3.079-3.271 4.795-6.327 4.795-4.38 0-6.84-3.079-6.84-7.41 0-4.005 2.595-7.438 6.759-7.438 4.407 0 7.112 4.005 6.598 8.228H29.36zM8.054 82.167h3.38v7.737h8.788v-7.737h3.38v19.452h-3.38v-8.773h-8.788v8.773h-3.38V82.167zM89.42 60.539h1.497v3.146h.052c.825-2.158 2.632-3.432 5.032-3.328v1.638c-2.942-.156-4.955 2.028-4.955 4.81v7.151H89.42V60.539zm-13.137 6.708c0 2.86 1.548 5.721 4.67 5.721 3.124 0 4.672-2.86 4.672-5.72 0-2.861-1.548-5.721-4.671-5.721s-4.671 2.86-4.671 5.72zm10.968 0c0 3.849-2.219 7.099-6.297 7.099-4.078 0-6.297-3.25-6.297-7.099 0-3.848 2.22-7.099 6.297-7.099 4.078 0 6.297 3.251 6.297 7.1zm-13.214-5.33h-2.632v12.039h-1.626v-12.04h-2.271V60.54h2.271v-1.222c-.026-2.315.62-3.927 3.226-3.927.465 0 .852.026 1.368.104v1.404c-.439-.078-.8-.13-1.187-.13-1.807 0-1.755 1.144-1.781 2.6v1.17h2.632v1.379zm-16.234 2.548c-.077-2.028-1.626-2.938-3.484-2.938-1.445 0-3.149.572-3.149 2.314 0 1.456 1.652 1.976 2.762 2.262l2.168.495c1.858.285 3.793 1.378 3.793 3.718 0 2.912-2.864 4.03-5.342 4.03-3.097 0-5.213-1.456-5.471-4.732h1.626c.13 2.21 1.755 3.354 3.923 3.354 1.522 0 3.639-.676 3.639-2.548 0-1.56-1.445-2.08-2.916-2.444l-2.091-.468c-2.116-.573-3.717-1.3-3.717-3.589 0-2.73 2.659-3.77 5.007-3.77 2.659 0 4.775 1.404 4.878 4.316h-1.626zm-12.465 9.491h1.626V55.39h-1.626v18.566zm-4.517 0h1.626V55.39H40.82v18.566zm-4.517 0h1.626V60.539h-1.626v13.417zm0-15.94h1.626V55.39h-1.626v2.626zM23.631 55.39h1.626v11.65l7.38-6.501h2.17l-5.679 4.966 6.065 8.451h-2.039l-5.265-7.307-2.632 2.21v5.097H23.63V55.39zM8.764 67.845c-.077 3.823 2.659 4.993 6.014 4.993 1.935 0 4.878-1.066 4.878-3.77 0-2.107-2.09-2.938-3.794-3.355l-4.104-1.014c-2.168-.546-4.155-1.586-4.155-4.472 0-1.82 1.161-5.227 6.35-5.227 3.638 0 6.838 1.976 6.812 5.772h-1.754c-.104-2.833-2.426-4.264-5.033-4.264-2.4 0-4.62.936-4.62 3.693 0 1.742 1.29 2.47 2.787 2.834l4.49 1.118c2.608.702 4.776 1.846 4.776 4.888 0 1.275-.516 5.305-7.046 5.305-4.362 0-7.562-1.976-7.356-6.5h1.755z" id="Fill-4" fill="#FFF"/></g></g></g></svg>